<!-- Generated by IcoMoon.io -->
<svg version="1.1" xmlns="http://www.w3.org/2000/svg" width="32" height="32" viewBox="0 0 32 32">
<title>attach</title>
<path fill="#a6a6a6" d="M21.849 0.002c-2.042 0-4.083 0.841-5.645 2.362l-11.13 10.889c-4.284 4.284-4.284 11.21 0 15.534 4.284 4.284 11.21 4.284 15.534 0l5.005-5.005-2.763-2.763-4.644 4.524-0.361 0.521c-1.281 1.28-3.051 2.071-5.005 2.071s-3.723-0.791-5.005-2.072v0c-2.723-2.723-2.643-7.127 0-9.889l11.13-11.009c1.561-1.561 4.163-1.561 5.765 0 1.561 1.561 1.481 4.043 0 5.645l-10.009 9.889c-0.401 0.401-1.081 0.401-1.521 0-0.401-0.401-0.401-1.081 0-1.521l0.24-0.12 3.643-3.763-2.763-2.763-3.883 3.883c-1.921 1.921-1.921 5.085 0 7.006s5.085 1.961 7.006 0l10.009-9.769c3.123-3.123 3.123-8.167 0-11.25-1.436-1.459-3.432-2.362-5.639-2.362-0.002 0-0.005 0-0.007 0h0.001l0.040-0.040z"></path>
</svg>
