<!-- Generated by IcoMoon.io -->
<svg version="1.1" xmlns="http://www.w3.org/2000/svg" width="32" height="32" viewBox="0 0 32 32">
<title>bell</title>
<path fill="none" stroke="#4d8cf4" stroke-linejoin="round" stroke-linecap="round" stroke-miterlimit="4" stroke-width="2.1818" d="M18.909 26.182c-0.063 2.362-1.992 4.252-4.364 4.252s-4.301-1.891-4.364-4.247l-0-0.006"></path>
<path fill="none" stroke="#dadde8" stroke-linejoin="round" stroke-linecap="round" stroke-miterlimit="4" stroke-width="2.1818" d="M5.818 9.917c0-4.673 3.908-8.463 8.727-8.463s8.727 3.789 8.727 8.463v6.348l4.225 7.2c0.358 0.694-0.004 1.263-0.804 1.263h-24.297c-0.8 0-1.164-0.569-0.804-1.263l4.225-7.2v-6.348z"></path>
<path fill="#ff7052" stroke="#fff" stroke-linejoin="miter" stroke-linecap="butt" stroke-miterlimit="4" stroke-width="2.9091" d="M30.255 8.727c0 4.017-3.256 7.273-7.273 7.273s-7.273-3.256-7.273-7.273c0-4.017 3.256-7.273 7.273-7.273s7.273 3.256 7.273 7.273z"></path>
</svg>
