<!-- Generated by IcoMoon.io -->
<svg version="1.1" xmlns="http://www.w3.org/2000/svg" width="32" height="32" viewBox="0 0 32 32">
<title>calender</title>
<path fill="#dadde8" d="M3.879 8.727c-0 0-0.001 0-0.001 0-0.669 0-1.212 0.542-1.212 1.212v0 18.182c0 0.669 0.543 1.213 1.213 1.213h24.241c0.669 0 1.213-0.543 1.213-1.213v-18.182c0-0.669-0.542-1.212-1.212-1.212-0 0-0.001 0-0.002 0h-24.241zM16 6.303h12.121c2.008 0 3.636 1.628 3.636 3.636v0 3.636c0 0.669-0.542 1.212-1.212 1.212s-1.212-0.542-1.212-1.212v0-3.636c0-0.669-0.542-1.212-1.212-1.212-0 0-0.001 0-0.002 0h-24.241c-0 0-0.001 0-0.001 0-0.669 0-1.212 0.542-1.212 1.212v0 2.425h23.031c0.67 0 1.212 0.543 1.212 1.212s-0.543 1.212-1.212 1.212v0h-25.455v-4.849c0-2.008 1.628-3.636 3.636-3.636v0h24.241c2.008 0 3.636 1.628 3.636 3.636v0 18.182c0 2.008-1.628 3.636-3.636 3.636v0h-24.241c-2.008 0-3.636-1.628-3.636-3.636v0-18.182c0-2.008 1.628-3.636 3.636-3.636v0h12.121z"></path>
<path fill="#4d8cf4" d="M8.727 19.030c0 1.004-0.814 1.818-1.818 1.818s-1.818-0.814-1.818-1.818c0-1.004 0.814-1.818 1.818-1.818s1.818 0.814 1.818 1.818z"></path>
<path fill="#4d8cf4" d="M14.788 19.030c0 1.004-0.814 1.818-1.818 1.818s-1.818-0.814-1.818-1.818c0-1.004 0.814-1.818 1.818-1.818s1.818 0.814 1.818 1.818z"></path>
<path fill="#4d8cf4" d="M8.727 25.091c0 1.004-0.814 1.818-1.818 1.818s-1.818-0.814-1.818-1.818c0-1.004 0.814-1.818 1.818-1.818s1.818 0.814 1.818 1.818z"></path>
<path fill="#4d8cf4" d="M14.788 25.091c0 1.004-0.814 1.818-1.818 1.818s-1.818-0.814-1.818-1.818c0-1.004 0.814-1.818 1.818-1.818s1.818 0.814 1.818 1.818z"></path>
<path fill="#4d8cf4" d="M20.848 19.030c0 1.004-0.814 1.818-1.818 1.818s-1.818-0.814-1.818-1.818c0-1.004 0.814-1.818 1.818-1.818s1.818 0.814 1.818 1.818z"></path>
<path fill="#4d8cf4" d="M20.848 25.091c0 1.004-0.814 1.818-1.818 1.818s-1.818-0.814-1.818-1.818c0-1.004 0.814-1.818 1.818-1.818s1.818 0.814 1.818 1.818z"></path>
<path fill="#4d8cf4" d="M26.909 25.091c0 1.004-0.814 1.818-1.818 1.818s-1.818-0.814-1.818-1.818c0-1.004 0.814-1.818 1.818-1.818s1.818 0.814 1.818 1.818z"></path>
<path fill="#4d8cf4" d="M7.514 0.243h0.001c0.669 0 1.212 0.542 1.212 1.212v2.425c0 0.669-0.542 1.212-1.212 1.212h-0.001c-0.669 0-1.212-0.542-1.212-1.212v-2.425c0-0.669 0.542-1.212 1.212-1.212z"></path>
<path fill="#4d8cf4" d="M24.484 0.243h0.001c0.669 0 1.212 0.542 1.212 1.212v2.425c0 0.669-0.542 1.212-1.212 1.212h-0.001c-0.669 0-1.212-0.542-1.212-1.212v-2.425c0-0.669 0.542-1.212 1.212-1.212z"></path>
<path fill="#4d8cf4" d="M24.484 17.923l1.569-1.567c0.219-0.219 0.522-0.355 0.857-0.355 0.669 0 1.212 0.543 1.212 1.212 0 0.335-0.136 0.638-0.355 0.857v0l-2.345 2.339c-0.224 0.271-0.56 0.443-0.936 0.443-0.335 0-0.638-0.136-0.857-0.355v0l-1.213-1.216c-0.22-0.219-0.355-0.523-0.355-0.857 0-0.669 0.543-1.212 1.212-1.212 0.335 0 0.637 0.136 0.857 0.355v0l0.355 0.356z"></path>
</svg>
