<!-- Generated by IcoMoon.io -->
<svg version="1.1" xmlns="http://www.w3.org/2000/svg" width="31" height="32" viewBox="0 0 31 32">
<title>gear</title>
<path fill="#dadde8" d="M11.713 6.386l-0.403 0.175c-0.704 0.306-1.369 0.693-1.985 1.148l-0.356 0.264-3.189-0.586c-0.056-0.011-0.12-0.017-0.186-0.017-0.375 0-0.703 0.203-0.88 0.505l-0.003 0.005-1.621 2.81c-0.086 0.146-0.136 0.322-0.136 0.509 0 0.252 0.091 0.483 0.243 0.661l-0.001-0.001 2.101 2.475-0.049 0.438c-0.041 0.344-0.064 0.742-0.064 1.145 0 0.408 0.024 0.81 0.070 1.206l-0.005-0.048 0.050 0.442-2.143 2.486c-0.153 0.177-0.247 0.41-0.247 0.665 0 0.188 0.051 0.364 0.14 0.515l-0.003-0.005 1.614 2.794c0.216 0.376 0.646 0.572 1.071 0.493l3.231-0.611 0.359 0.266c0.616 0.456 1.283 0.843 1.987 1.151l0.403 0.177 1.092 3.055c0.145 0.406 0.529 0.676 0.96 0.676h3.249c0.431 0 0.815-0.27 0.96-0.676l1.096-3.058 0.403-0.177c0.698-0.306 1.361-0.689 1.974-1.141l0.355-0.264 3.194 0.584c0.055 0.011 0.119 0.017 0.184 0.017 0.376 0 0.704-0.203 0.881-0.506l0.003-0.005 1.624-2.813c0.086-0.146 0.136-0.322 0.136-0.509 0-0.252-0.091-0.483-0.243-0.661l0.001 0.001-2.101-2.481 0.047-0.437c0.040-0.343 0.063-0.74 0.063-1.142 0-0.329-0.015-0.655-0.046-0.976l0.003 0.041-0.040-0.431 2.586-2.994c0.154-0.178 0.248-0.411 0.248-0.667 0-0.188-0.051-0.364-0.139-0.515l0.003 0.005-1.611-2.792c-0.18-0.307-0.508-0.509-0.883-0.509-0.068 0-0.134 0.007-0.198 0.019l0.006-0.001-3.893 0.739-0.353-0.25c-0.523-0.375-1.119-0.717-1.748-0.997l-0.065-0.026-0.406-0.177-1.085-3.051c-0.145-0.398-0.52-0.677-0.96-0.678h-3.246c-0 0-0.001 0-0.001 0-0.44 0-0.815 0.279-0.958 0.669l-0.002 0.007-1.089 3.058zM10.883 2.643c0.435-1.194 1.561-2.031 2.883-2.031 0 0 0 0 0 0h3.243c0 0 0 0 0.001 0 1.322 0 2.449 0.839 2.877 2.013l0.007 0.021 0.793 2.229c0.484 0.234 0.953 0.498 1.402 0.793l3.051-0.58c0.172-0.034 0.369-0.054 0.572-0.054 1.127 0 2.111 0.609 2.643 1.516l0.008 0.014 1.611 2.791c0.258 0.439 0.41 0.967 0.41 1.531 0 0.767-0.282 1.467-0.747 2.004l0.003-0.004-2.027 2.346c0.012 0.207 0.019 0.449 0.019 0.693 0 0.32-0.012 0.637-0.036 0.95l0.003-0.042 1.54 1.818c0.451 0.53 0.726 1.223 0.726 1.979 0 0.564-0.152 1.092-0.418 1.545l0.008-0.014-1.624 2.812c-0.539 0.921-1.524 1.53-2.651 1.53-0.194 0-0.384-0.018-0.568-0.053l0.019 0.003-2.337-0.426c-0.508 0.348-1.041 0.657-1.596 0.924l-0.803 2.24c-0.436 1.193-1.561 2.028-2.881 2.029h-3.247c-0 0-0 0-0 0-1.321 0-2.447-0.837-2.876-2.010l-0.007-0.021-0.799-2.234c-0.622-0.302-1.148-0.612-1.647-0.959l0.040 0.026-2.365 0.448c-0.171 0.034-0.367 0.053-0.568 0.053-1.127 0-2.112-0.609-2.643-1.516l-0.008-0.014-1.614-2.794c-0.257-0.439-0.409-0.966-0.409-1.529 0-0.766 0.281-1.466 0.746-2.003l-0.003 0.004 1.567-1.818c-0.022-0.278-0.035-0.603-0.035-0.93s0.013-0.652 0.038-0.973l-0.003 0.043-1.539-1.811c-0.452-0.53-0.727-1.223-0.727-1.981 0-0.564 0.152-1.092 0.418-1.545l-0.008 0.014 1.621-2.81c0.539-0.92 1.523-1.528 2.65-1.528 0.197 0 0.389 0.019 0.575 0.054l-0.019-0.003 2.329 0.429c0.459-0.319 0.985-0.629 1.535-0.899l0.072-0.032 0.797-2.236z"></path>
<path fill="#4d8cf4" d="M15.388 21.018c-2.818 0-5.102-2.284-5.102-5.102s2.284-5.102 5.102-5.102v0c2.818 0 5.102 2.284 5.102 5.102s-2.284 5.102-5.102 5.102v0zM15.388 18.977c1.69 0 3.061-1.37 3.061-3.061s-1.37-3.061-3.061-3.061v0c-1.69 0-3.061 1.37-3.061 3.061s1.37 3.061 3.061 3.061v0z"></path>
</svg>
