<!-- Generated by IcoMoon.io -->
<svg version="1.1" xmlns="http://www.w3.org/2000/svg" width="32" height="32" viewBox="0 0 32 32">
<title>play</title>
<path d="M6.744 0.32c-0.288-0.2-0.646-0.322-1.032-0.322-0.278 0-0.542 0.062-0.776 0.174l0.012-0.004c-0.554 0.252-0.936 0.796-0.946 1.43v28.8c0 0.606 0.368 1.16 0.946 1.432 0.224 0.106 0.488 0.168 0.764 0.168 0.386 0 0.744-0.12 1.038-0.324l-0.006 0.004 20.57-14.4c0.412-0.282 0.68-0.75 0.686-1.28v-0c-0.006-0.53-0.274-0.998-0.68-1.276l-0.006-0.004-20.57-14.4z"></path>
</svg>
