<!-- Generated by IcoMoon.io -->
<svg version="1.1" xmlns="http://www.w3.org/2000/svg" width="32" height="32" viewBox="0 0 32 32">
<title>send</title>
<path d="M30.419 13.114l-26.098-10.827c-0.354-0.153-0.768-0.242-1.202-0.242-0.782 0-1.497 0.289-2.043 0.767l0.004-0.003c-0.663 0.572-1.080 1.415-1.080 2.354 0 0.277 0.036 0.545 0.104 0.801l-0.005-0.021 2.322 9.111h11.373c0.504 0.025 0.904 0.44 0.904 0.947s-0.399 0.923-0.902 0.947h-11.375l-2.322 9.109c-0.063 0.234-0.099 0.502-0.099 0.779 0 0.94 0.417 1.781 1.076 2.351l0.004 0.003c0.543 0.475 1.258 0.765 2.041 0.765 0.433 0 0.846-0.089 1.22-0.249l-0.021 0.007 26.098-10.829c1.186-0.494 1.926-1.598 1.926-2.885 0-1.285-0.738-2.391-1.926-2.885z"></path>
</svg>
