<!-- Generated by IcoMoon.io -->
<svg version="1.1" xmlns="http://www.w3.org/2000/svg" width="32" height="32" viewBox="0 0 32 32">
<title>sheild</title>
<path fill="#4d8cf4" d="M0.044 12.718c3.362-2.019 6.117-4.774 8.266-8.266 2.686 0.794 5.36 0.469 8.022-0.972 14.105 6.674 14.886 7.079 15.667 7.484l-13.281-6.268c-0.013 2.285-2.767 10.226-8.265 23.825l-6.079-2.187c-1.847-0.664-2.773-1.685-3.557-3.471-0.672-1.529-0.929-4.91-0.773-10.144z"></path>
<path fill="#60d9f7" d="M2.431 13.933c3.362-2.019 6.117-4.774 8.266-8.266 2.686 0.794 5.36 0.469 8.022-0.972 0.129 5.194-0.159 8.966-0.865 11.315-1.4 4.663-4.614 8.989-7.401 12.509-2.931-0.894-6.199-2.342-7.25-3.956-0.858-1.318-1.115-4.861-0.773-10.63z"></path>
<path fill="#f9f9fe" d="M4.002 15.013c2.816-2.092 5.176-4.534 7.082-7.325 1.99 0.446 4.041 0.259 6.152-0.562 0.122 3.983-0.116 6.942-0.715 8.876-0.844 2.727-3.715 7.357-6.029 10.304-2.283-0.674-4.863-1.948-5.578-3.179-0.867-1.492-1.171-4.197-0.911-8.115z"></path>
<path fill="#ecf1fa" d="M11.084 7.688c1.99 0.446 4.041 0.259 6.152-0.562 0.122 3.983-0.116 6.942-0.715 8.876-0.844 2.727-3.715 7.357-6.029 10.304 0.723-1.324 2.898-5.811 3.161-10.915 0.031-3.745-1.867-6.786-2.568-7.704z"></path>
</svg>
