<!-- Generated by IcoMoon.io -->
<svg version="1.1" xmlns="http://www.w3.org/2000/svg" width="31" height="32" viewBox="0 0 31 32">
<title>trash</title>
<path fill="#a6a6a6" d="M15.608 10.187c0.682 0 1.237 0.56 1.237 1.251v14.307c0 0.003 0 0.007 0 0.010 0 0.684-0.553 1.239-1.237 1.242h-0c-0.683-0.003-1.237-0.557-1.237-1.242 0-0.003 0-0.007 0-0.010v0.001-14.307c0-0.003 0-0.007 0-0.010 0-0.684 0.553-1.239 1.237-1.241h0zM19.942 11.383l-0.619 14.309c-0.001 0.018-0.001 0.039-0.001 0.061 0 0.685 0.553 1.241 1.238 1.244h0c0.667-0.002 1.211-0.531 1.237-1.193v-0.003l0.619-14.309c0.001-0.018 0.001-0.039 0.001-0.060 0-0.666-0.523-1.21-1.182-1.243l-0.003-0c-0.015-0.001-0.032-0.001-0.049-0.001-0.669 0-1.215 0.529-1.241 1.191v0.003zM9.984 10.189c-0.661 0.033-1.185 0.577-1.185 1.243 0 0.021 0.001 0.042 0.001 0.063l-0-0.003 0.619 14.309c0.027 0.665 0.572 1.194 1.241 1.194 0.017 0 0.035-0.001 0.052-0.001h-0.003c0.661-0.033 1.185-0.577 1.185-1.243 0-0.021-0.001-0.042-0.001-0.063l0 0.003-0.619-14.309c-0.027-0.665-0.572-1.194-1.241-1.194-0.017 0-0.035 0.001-0.052 0.001h0.003zM30.217 6.438c0 0.002 0 0.005 0 0.007 0 0.684-0.553 1.239-1.237 1.241h-1.283l-1.071 14.035c-0.047 0.647-0.583 1.155-1.239 1.155-0.032 0-0.063-0.001-0.095-0.003l0.004 0c-0.643-0.055-1.143-0.59-1.143-1.243 0-0.035 0.001-0.071 0.005-0.106l-0 0.005 1.057-13.842h-19.211l1.493 19.549c0.122 1.291 1.181 2.265 2.467 2.265h11.293c1.291 0 2.352-0.962 2.467-2.24 0.057-0.638 0.589-1.135 1.237-1.135 0.037 0 0.075 0.001 0.111 0.005l-0.005-0.001c0.682 0.063 1.183 0.672 1.12 1.359-0.223 2.537-2.337 4.511-4.913 4.511-0.007 0-0.013 0-0.019 0h-11.292c-1.239 0-2.425-0.463-3.341-1.307-0.891-0.823-1.479-1.961-1.591-3.237l-0.001-0.019-1.509-19.751h-1.283c-0.683-0.003-1.237-0.557-1.237-1.241 0-0.003 0-0.005 0-0.008v0.001c0-0.002 0-0.005 0-0.007 0-0.684 0.553-1.239 1.237-1.241h7.492v-1.437c0-2.069 1.665-3.752 3.713-3.752h4.334c2.045 0 3.713 1.68 3.713 3.749v1.437h7.492c0.682 0 1.237 0.56 1.237 1.251zM12.204 5.189h6.808v-1.437c0-0.001 0-0.003 0-0.005 0-0.685-0.553-1.241-1.237-1.247h-4.335c-0.682 0-1.237 0.56-1.237 1.249v1.437z"></path>
</svg>
