<!-- Generated by IcoMoon.io -->
<svg version="1.1" xmlns="http://www.w3.org/2000/svg" width="39" height="32" viewBox="0 0 39 32">
<title>users</title>
<path fill="none" stroke="#4d8cf4" stroke-linejoin="miter" stroke-linecap="butt" stroke-miterlimit="4" stroke-width="3.5556" d="M31.289 13.867c1.898 0 3.437-1.539 3.437-3.437s-1.539-3.437-3.437-3.437v0c-1.898 0-3.437 1.539-3.437 3.437s1.539 3.437 3.437 3.437v0zM31.289 14.814c-0.026 0.001-0.057 0.001-0.088 0.001-2.422 0-4.386-1.964-4.386-4.386s1.964-4.386 4.386-4.386c0.031 0 0.062 0 0.093 0.001l-0.005-0c2.384 0.050 4.297 1.994 4.297 4.385s-1.914 4.335-4.293 4.385l-0.005 0z"></path>
<path fill="none" stroke="#dadde8" stroke-linejoin="miter" stroke-linecap="butt" stroke-miterlimit="4" stroke-width="3.5556" d="M14.341 13.867c3.338 0 6.044-2.706 6.044-6.044s-2.706-6.044-6.044-6.044v0c-3.338 0-6.044 2.706-6.044 6.044s2.706 6.044 6.044 6.044v0zM14.341 14.814c-3.862 0-6.992-3.13-6.992-6.992s3.13-6.992 6.992-6.992v0c3.862 0 6.992 3.13 6.992 6.992s-3.13 6.992-6.992 6.992v0z"></path>
<path fill="#4d8cf4" d="M25.94 22.738c-0.217 0.435-0.659 0.728-1.17 0.728-0.72 0-1.303-0.584-1.303-1.303 0-0.209 0.049-0.407 0.137-0.583l-0.003 0.008c1.504-3.060 4.13-4.64 7.673-4.64 3.538 0 6.172 1.577 7.701 4.633 0.087 0.17 0.138 0.371 0.138 0.583 0 0.72-0.584 1.304-1.304 1.304-0.508 0-0.947-0.29-1.163-0.713l-0.003-0.007c-1.081-2.16-2.804-3.191-5.371-3.191-2.564 0-4.274 1.028-5.333 3.182z"></path>
<path fill="#dadde8" d="M2.578 30.267c-0.134 0.589-0.653 1.023-1.274 1.023-0.721 0-1.305-0.584-1.305-1.305 0-0.1 0.011-0.197 0.032-0.291l-0.002 0.009c1.861-8.391 6.697-12.756 14.276-12.756s12.436 4.361 14.343 12.748c0.021 0.087 0.032 0.186 0.032 0.289 0 0.72-0.584 1.304-1.304 1.304-0.617 0-1.135-0.429-1.269-1.006l-0.002-0.009c-1.65-7.257-5.506-10.718-11.799-10.718-6.29 0-10.123 3.458-11.732 10.711z"></path>
</svg>
